<?xml version="1.0" standalone="no"?>
<!DOCTYPE svg PUBLIC "-//W3C//DTD SVG 20010904//EN" "http://www.w3.org/TR/2001/REC-SVG-20010904/DTD/svg10.dtd">
<svg version="1.0" xmlns="http://www.w3.org/2000/svg" width="206.000000pt" height="97.000000pt" viewBox="3 -40 130 77" preserveAspectRatio="xMidYMid meet">

    <g transform="translate(0.000000,97.000000) scale(0.100000,-0.100000)" fill="red" stroke="none">
        <path d="M35 947 c-3 -7 -4 -152 -3 -322 l3 -310 670 0 670 0 3 224 c2 210 1 223 -15 216 -10 -4 -27 -7 -38 -6 -11 1 -43 2 -72 2 -43 0 -53 4 -58 20 -4 10 -10 19 -15 19 -4 0 -6 19 -3 43 4 34 13 50 51 85 37 33 42 42 26 42 -20 0 -83 -59 -102 -95 -12 -25 -9 -71 8 -107 10 -21 20 -28 41 -28 40 0 45 -18 14 -50 -28 -29 -27 -50 2 -50 13 0 13 -3 3 -15 -17 -21 -47 -19 -60 4 -8 16 -5 25 15 47 32 35 32 44 -5 44 -20 0 -33 7 -41 23 -7 12 -16 24 -20 27 -4 3 -4 31 0 63 6 48 14 64 46 97 l39 40 -577 0 c-455 0 -579 -3 -582 -13z m167 -399 l-3 -38 49 0 49 0 -2 40 c-2 36 1 40 22 40 23 0 23 -1 23 -115 0 -114 0 -115 -24 -115 -22 0 -23 4 -22 53 l1 52 -47 3 -47 3 2 -53 c2 -48 0 -53 -20 -56 -23 -3 -23 -2 -23 113 0 115 0 116 23 113 19 -3 22 -8 19 -40z m276 -78 c3 -74 11 -87 41 -71 18 10 21 21 21 76 0 58 2 65 20 65 19 0 20 -7 20 -89 l0 -90 -62 2 c-56 2 -64 5 -75 27 -13 27 -18 132 -6 144 4 4 14 5 22 4 12 -2 16 -20 19 -68z m320 43 c4 -26 2 -27 -32 -12 -35 17 -56 -3 -56 -52 0 -45 26 -67 59 -49 28 15 33 13 29 -12 -2 -17 -11 -24 -32 -26 -51 -6 -76 6 -92 45 -30 70 11 136 81 131 33 -2 41 -7 43 -25z m211 1 c13 -16 21 -41 21 -64 0 -54 -31 -90 -79 -90 -53 0 -76 28 -76 92 0 40 5 53 24 69 35 28 85 25 110 -7z m236 3 c10 -14 15 -45 15 -89 0 -61 -2 -68 -20 -68 -17 0 -19 8 -22 68 -3 64 -4 67 -28 67 -24 0 -25 -3 -28 -67 -3 -60 -5 -68 -22 -68 -18 0 -20 7 -20 89 l0 89 55 1 c45 0 57 -4 70 -22z"/>
    </g>
</svg>
