<svg xmlns="http://www.w3.org/2000/svg" id="Layer_1" data-name="Layer 1" viewBox="10 10 125 63">
    <defs>
        <style>.cls-1{fill:#00529b;}.cls-2{fill:#ffd200;}.cls-3{fill:#fff;}</style>
    </defs>
    <title>Artboard 1</title>
    <path class="cls-1" d="M74.35,40.55s-16.8-23.8-17.7-24.9c-1.3-1.8-3.3-3.8-7.8-3.8H14.35v17.4l5.8,2.5a1,1,0,0,1,.7,1.1v17.8L14.25,57l6.6,6.2v17.9a1.06,1.06,0,0,1-.6,1.1c-.4.3-5.9,3.3-5.9,3.3v16.7h50v-17l-5.8-2.9a1,1,0,0,1-.7-1.1v-13l16.5,23.3,16.5-23.3v13a1,1,0,0,1-.7,1.1l-5.8,2.9v17.1h50V85.65s-5.5-3-5.9-3.3a1.06,1.06,0,0,1-.6-1.1V63.35l6.6-6.2-6.6-6.4V33a1,1,0,0,1,.7-1.1l5.8-2.5V11.85H99.85c-4.5,0-6.6,2-7.8,3.8C91.05,16.75,74.35,40.55,74.35,40.55ZM130,98H112.9a5.11,5.11,0,0,1-3.5-1.6c-1.7,1.4-2.7,1.6-3.5,1.6H88.65V87.35c1.3-.4,6.5-1.1,6.5-6.1V54.65l-20.9,29.5-20.9-29.5v26.6c0,5,5.2,5.6,6.5,6.1V98H42.75a5.11,5.11,0,0,1-3.5-1.6c-1.7,1.4-2.7,1.6-3.5,1.6H18.65V87.25c1.9-.6,6.5-1.1,6.5-6V63.35a4.4,4.4,0,0,0-1.5-3.5l-3.3-2.7,3.4-2.9a4.4,4.4,0,0,0,1.5-3.5V33c0-5.5-6.5-6-6.5-6V16.15h15.6a5.77,5.77,0,0,1,3,1.3,6.94,6.94,0,0,1,3.4-1.3h8.1a5.06,5.06,0,0,1,4.5,2.1L74.45,48l21.1-29.7a3.76,3.76,0,0,1,1.6-1.4,6.83,6.83,0,0,1,2.9-.7h8.1a7.28,7.28,0,0,1,3.4,1.3,5.23,5.23,0,0,1,3.4-1.3h15.2V26.9s-6.5.5-6.5,6V50.7a4.4,4.4,0,0,0,1.5,3.5l3.4,2.9-3.2,2.8a4.4,4.4,0,0,0-1.5,3.5V81.3c0,5,4.5,5.4,6.5,6Z"/>
    <path class="cls-2" d="M74.35,78l24.4-34.5V81.2a9.06,9.06,0,0,1-6.5,8.8v4.5h13.6c.8,0,3.5-2.9,3.5-2.9s2.7,2.9,3.5,2.9h13.6V90a9.06,9.06,0,0,1-6.5-8.8V63.25h0a7.91,7.91,0,0,1,3.5-6.2s-3.5-2.4-3.5-6.4h0V32.75a9.06,9.06,0,0,1,6.5-8.8v-4.5h-11.7c-1.3.2-3.4,2.9-3.4,2.9s-2-2.9-3.4-2.9h-8.1a1.7,1.7,0,0,0-1.6.6l-24,34-24-33.9a1.7,1.7,0,0,0-1.6-.6h-8.1c-1.3.2-3.4,2.9-3.4,2.9s-2-2.9-3.4-2.9H22v4.5a9.06,9.06,0,0,1,6.5,8.8v17.8h0c0,4-3.5,6.4-3.5,6.4a7.69,7.69,0,0,1,3.5,6.2h0v17.9A9.06,9.06,0,0,1,22,90v4.5h13.6c.8,0,3.5-2.9,3.5-2.9s2.7,2.9,3.5,2.9h13.6V90a9.06,9.06,0,0,1-6.5-8.8V43.35Z"/>
    <path class="cls-3" d="M129,50.35V32.85l6.5-2.9V10.85H99.85c-5.1,0-7.4,2.4-8.7,4.2l-16.8,23.7L57.55,15c-1.3-1.8-3.5-4.2-8.7-4.2H13.25V29.9l6.5,2.9V50.3l-7,6.8,7,6.7V81.4l-6.5,3.7v18.4h52.1V84.55l-6.5-3.2v-9.8l15.4,21.9,15.5-21.9v9.8l-6.5,3.2v18.8h52.1V85.05l-6.5-3.6V63.85l7-6.7Zm-.5,32c.4.3,5.9,3.3,5.9,3.3v16.7h-50V85.25l5.8-2.9a1,1,0,0,0,.7-1.1v-13L74.4,91.55,57.9,68.25v13a1,1,0,0,0,.7,1.1l5.8,2.9v17.1h-50V85.65s5.5-3,5.9-3.3a1.06,1.06,0,0,0,.6-1.1V63.35l-6.6-6.2,6.6-6.4V33a1,1,0,0,0-.7-1.1l-5.8-2.5V11.85H48.9c4.5,0,6.6,2,7.8,3.8.8,1.2,17.7,24.9,17.7,24.9s16.8-23.8,17.7-24.9c1.3-1.8,3.3-3.8,7.8-3.8h34.5v17.4l-5.8,2.5a1,1,0,0,0-.7,1.1v17.8l6.6,6.4-6.6,6.2v17.9c.1.85.1.9.55,1.2Zm1.5-55.5V16.15H114.7a5.82,5.82,0,0,0-3.4,1.3,6.94,6.94,0,0,0-3.4-1.3H99.8a5.62,5.62,0,0,0-2.9.7,4.56,4.56,0,0,0-1.6,1.4L74.2,48,53.1,18.25a5.06,5.06,0,0,0-4.5-2.1H40.5a7.28,7.28,0,0,0-3.4,1.3,5.77,5.77,0,0,0-3-1.3H18.45v10.7s6.5.5,6.5,6v17.8a4.4,4.4,0,0,1-1.5,3.5L20.05,57l3.3,2.7a4.4,4.4,0,0,1,1.5,3.5v17.9c0,5-4.5,5.4-6.5,6v10.7h17.1a5.11,5.11,0,0,0,3.5-1.6c1.7,1.4,2.7,1.6,3.5,1.6h17.1V87.35c-1.3-.4-6.5-1.1-6.5-6.1V54.65L74,84.15l20.9-29.5v26.6c0,5-5.2,5.6-6.5,6.1V98h17.1a5.11,5.11,0,0,0,3.5-1.6c1.7,1.4,2.7,1.6,3.5,1.6h17.1V87.25c-1.9-.6-6.5-1.1-6.5-6V63.35a4.4,4.4,0,0,1,1.5-3.5l3.3-2.7-3.4-2.9a4.4,4.4,0,0,1-1.5-3.5V32.85C123.45,27.35,130,26.85,130,26.85Zm-10,6v17.8h0c0,4,3.5,6.4,3.5,6.4a7.69,7.69,0,0,0-3.5,6.2h0v17.9a9.06,9.06,0,0,0,6.5,8.8v4.5H112.9c-.8,0-3.5-2.9-3.5-2.9s-2.7,2.9-3.5,2.9H92.25V90a9.06,9.06,0,0,0,6.5-8.8V43.45l-24.4,34.5L50,43.45v37.7A9.06,9.06,0,0,0,56.5,90v4.5H42.85c-.8,0-3.5-2.9-3.5-2.9s-2.7,2.9-3.5,2.9H22.25V90a9.06,9.06,0,0,0,6.5-8.8V63.25h0a7.91,7.91,0,0,0-3.5-6.2s3.5-2.4,3.5-6.4h0V32.75a9.06,9.06,0,0,0-6.5-8.8v-4.5H34c1.3.2,3.4,2.9,3.4,2.9s2-2.9,3.4-2.9h8.1a1.7,1.7,0,0,1,1.6.6L74.5,54l24-33.9a1.7,1.7,0,0,1,1.6-.6h8.1c1.3.2,3.4,2.9,3.4,2.9s2-2.9,3.4-2.9h11.7V24C126.35,24.15,120,25.75,120,32.85Z"/>
    <path class="cls-3" d="M279.25,67.85c-1.7-1.7-.9-2.9-.4-3.4.8,1.8,1.8,1.8,3.1,2.8,2.7,2.2,1.2,3.7.1,4.4-.7-2.8-1.1-2-2.8-3.8m-.8-5.6c-2.3,1.3-7.9,5.6-4.4,9.3,2.6,2.8,5.8,1.7,6.3.9,1.2-1.9-.3-3.1-1.7-4.1-2.2-1.4-2.1-2.4-.2-6.1"/>
    <path class="cls-3" d="M398.15,67.85c0,.2-.1.4-.3.4l-109.3,1.2-2-1.6,2-1.6L398,67.45c.1,0,.2.2.2.4"/>
    <path class="cls-3" d="M268,66.15h0l-109.3,1.2a.45.45,0,0,0-.3.4c0,.2.1.4.3.4L268,69.35l2-1.6Z"/>
    <path class="cls-3" d="M162.65,54.25H150v-1.8h.1c3,0,4.4-1.2,4.4-4.1V25.25c0-2.6-1.2-3.6-4.6-3.7v-1.7h12L173,45.95l11.6-26.1H196v1.7c-3.3.1-4.6,1.1-4.6,3.7v23.4c0,2.7,1.2,3.7,4.6,3.7v1.8h-14.8v-1.8c3.5,0,4.8-1,4.8-3.7V23.75l-13.3,30.4h-2l-13-30.2v24.5c0,2.9,1.2,4,4.9,4.1Z"/>
    <path class="cls-3" d="M257.45,19.75H270v1.7c-3.1,0-4.6,1.3-4.6,4.2v29.2h-2l-24.8-29v22.7c0,2.8,1.4,4.1,4.5,4.1h.4v1.8H231v-1.8h.2c3,0,4.4-1.2,4.4-4.1V23.45a6.42,6.42,0,0,0-4.6-1.9v-1.7h9.7l21.7,25.3V25.55c0-2.8-1.5-4.2-4.9-4.2v-1.6Z"/>
    <path class="cls-3" d="M366.35,46.15c0-3.3-2.3-5-7.2-6.6l-4.1-1.4c-6.7-2.2-9.8-4.9-9.8-9.5,0-5.6,4.8-9.7,12.1-9.7,4.2,0,6.9,1.9,8.3,1.9.8,0,1.4-.6,1.9-1.7h1.7l.2,10h-1.6c-1.7-5.1-5.4-7.7-10.4-7.7-4.6,0-7.3,2.3-7.3,5.5,0,2.7,2.1,4.3,6.7,5.8l4.6,1.5c7.1,2.3,10.5,5.1,10.5,10.1,0,6.1-5.4,10.7-13.1,10.7-5.5,0-8.6-2.3-10-2.3-.9,0-1.3.6-1.8,2h-1.9l-.6-11.1h1.8c2.5,6,6.4,8.9,11.9,8.9C363,52.65,366.35,49.75,366.35,46.15Z"/>
    <path class="cls-3" d="M196.65,38.45c1.4-.5,2.7-2.1,3.7-4.7h0a23,23,0,0,1,2.3-4,15.23,15.23,0,0,1,11.9-5.6c4.4,0,7,1.7,8.1,1.7a2.47,2.47,0,0,0,2-1.4H226l.3,9.1h-1.6c-1.5-4.9-4.9-7.3-9.4-7.3-6.4,0-10.9,5-10.9,13.3,0,7.9,4.8,12.9,11.3,12.9,4.1,0,7.3-1.9,10.1-5.7l1.8,1.1c-2.8,4.8-7.1,7.1-12.9,7.1a15.52,15.52,0,0,1-10.3-3.5,13.71,13.71,0,0,1-5.1-8.3h0C199.05,40.55,198,39,196.65,38.45Z"/>
    <path class="cls-3" d="M303.35,54.25h-30.3v-1.8c3.3-.1,4.6-1.1,4.6-3.7V25.35c0-2.6-1.2-3.6-4.6-3.7v-1.7h29.8v7.6h-2c-.5-4.1-2.4-5.1-7-5.1h-10.5V35h5.7c3.5,0,4.8-1.1,5.1-4.7h1.9V42.4h-1.9a13.09,13.09,0,0,0-.6-2.7c-.7-1.5-1.9-2-4.3-2h-6V47.8c0,3.3.7,4.2,4.5,4.2h7.6c4.2,0,6.4-1.8,7.8-6.1h1.9Z"/>
    <path class="cls-3" d="M338.45,54.25h-30.3v-1.8c3.3-.1,4.6-1.1,4.6-3.7V25.35c0-2.6-1.2-3.6-4.6-3.7v-1.7h29.7v7.6h-2c-.6-4.1-2.4-5.1-7-5.1h-10.5V35h5.7a5.73,5.73,0,0,0,3.4-.8c1-.7,1.4-1.9,1.6-3.9H331V42.4h-1.9c-.4-3.5-1.5-4.8-4.9-4.8h-6V47.7c0,3.3.7,4.2,4.5,4.2h7.6c4.2,0,6.4-1.8,7.8-6.1H340Z"/>
    <path class="cls-3" d="M406.55,45.65l-1.6,8.5h-30.4v-1.8c3.3-.1,4.6-1.1,4.6-3.7V25.35c0-2.6-1.2-3.6-4.6-3.7V20h29.7v7.6h-2c-.6-4.1-2.4-5.1-7-5.1h-10.4V35.1h5.7c3.5,0,4.8-1.1,5.1-4.7h1.9V42.5h-1.9c-.4-3.5-1.5-4.8-4.9-4.8h-6V47.8c0,3.3.7,4.2,4.5,4.2h7.6c4.2,0,6.4-1.8,7.8-6.1Z"/>
    <path class="cls-3" d="M162.65,54.25H150v-1.8h.1c3,0,4.4-1.2,4.4-4.1V25.25c0-2.6-1.2-3.6-4.6-3.7v-1.7h12L173,45.95l11.6-26.1H196v1.7c-3.3.1-4.6,1.1-4.6,3.7v23.4c0,2.7,1.2,3.7,4.6,3.7v1.8h-14.8v-1.8c3.5,0,4.8-1,4.8-3.7V23.75l-13.3,30.4h-2l-13-30.2v24.5c0,2.9,1.2,4,4.9,4.1Z"/>
    <path class="cls-3" d="M257.45,19.75H270v1.7c-3.1,0-4.6,1.3-4.6,4.2v29.2h-2l-24.8-29v22.7c0,2.8,1.4,4.1,4.5,4.1h.4v1.8H231v-1.8h.2c3,0,4.4-1.2,4.4-4.1V23.45a6.42,6.42,0,0,0-4.6-1.9v-1.7h9.7l21.7,25.3V25.55c0-2.8-1.5-4.2-4.9-4.2v-1.6Z"/>
    <path class="cls-3" d="M366.35,46.15c0-3.3-2.3-5-7.2-6.6l-4.1-1.4c-6.7-2.2-9.8-4.9-9.8-9.5,0-5.6,4.8-9.7,12.1-9.7,4.2,0,6.9,1.9,8.3,1.9.8,0,1.4-.6,1.9-1.7h1.7l.2,10h-1.6c-1.7-5.1-5.4-7.7-10.4-7.7-4.6,0-7.3,2.3-7.3,5.5,0,2.7,2.1,4.3,6.7,5.8l4.6,1.5c7.1,2.3,10.5,5.1,10.5,10.1,0,6.1-5.4,10.7-13.1,10.7-5.5,0-8.6-2.3-10-2.3-.9,0-1.3.6-1.8,2h-1.9l-.6-11.1h1.8c2.5,6,6.4,8.9,11.9,8.9C363,52.65,366.35,49.75,366.35,46.15Z"/>
    <path class="cls-3" d="M196.65,38.45c1.4-.5,2.7-2.1,3.7-4.7h0a23,23,0,0,1,2.3-4,15.23,15.23,0,0,1,11.9-5.6c4.4,0,7,1.7,8.1,1.7a2.47,2.47,0,0,0,2-1.4H226l.3,9.1h-1.6c-1.5-4.9-4.9-7.3-9.4-7.3-6.4,0-10.9,5-10.9,13.3,0,7.9,4.8,12.9,11.3,12.9,4.1,0,7.3-1.9,10.1-5.7l1.8,1.1c-2.8,4.8-7.1,7.1-12.9,7.1a15.52,15.52,0,0,1-10.3-3.5,13.71,13.71,0,0,1-5.1-8.3h0C199.05,40.55,198,39,196.65,38.45Z"/>
    <path class="cls-3" d="M303.35,54.25h-30.3v-1.8c3.3-.1,4.6-1.1,4.6-3.7V25.35c0-2.6-1.2-3.6-4.6-3.7v-1.7h29.8v7.6h-2c-.5-4.1-2.4-5.1-7-5.1h-10.5V35h5.7c3.5,0,4.8-1.1,5.1-4.7h1.9V42.4h-1.9a13.09,13.09,0,0,0-.6-2.7c-.7-1.5-1.9-2-4.3-2h-6V47.8c0,3.3.7,4.2,4.5,4.2h7.6c4.2,0,6.4-1.8,7.8-6.1h1.9Z"/>
    <path class="cls-3" d="M338.45,54.25h-30.3v-1.8c3.3-.1,4.6-1.1,4.6-3.7V25.35c0-2.6-1.2-3.6-4.6-3.7v-1.7h29.7v7.6h-2c-.6-4.1-2.4-5.1-7-5.1h-10.5V35h5.7a5.73,5.73,0,0,0,3.4-.8c1-.7,1.4-1.9,1.6-3.9H331V42.4h-1.9c-.4-3.5-1.5-4.8-4.9-4.8h-6V47.7c0,3.3.7,4.2,4.5,4.2h7.6c4.2,0,6.4-1.8,7.8-6.1H340Z"/>
    <path class="cls-3" d="M406.55,45.65l-1.6,8.5h-30.4v-1.8c3.3-.1,4.6-1.1,4.6-3.7V25.35c0-2.6-1.2-3.6-4.6-3.7V20h29.7v7.6h-2c-.6-4.1-2.4-5.1-7-5.1h-10.4V35.1h5.7c3.5,0,4.8-1.1,5.1-4.7h1.9V42.5h-1.9c-.4-3.5-1.5-4.8-4.9-4.8h-6V47.8c0,3.3.7,4.2,4.5,4.2h7.6c4.2,0,6.4-1.8,7.8-6.1Z"/>
    <path class="cls-3" d="M159.65,98.55h-.8l-.3-5.5h.8a6.61,6.61,0,0,0,2.2,3.2,5.39,5.39,0,0,0,3.2,1.1,4.39,4.39,0,0,0,2.7-.9,2.84,2.84,0,0,0,1-2.2,2.41,2.41,0,0,0-.7-1.8,7.68,7.68,0,0,0-2.5-1.4l-1.9-.7a10.3,10.3,0,0,1-3.4-1.9,3.78,3.78,0,0,1-1-2.7,4.48,4.48,0,0,1,1.5-3.4,5.94,5.94,0,0,1,4.1-1.3,6.87,6.87,0,0,1,2.4.5,7.84,7.84,0,0,0,1.4.5.76.76,0,0,0,.5-.2,2.09,2.09,0,0,0,.4-.6h.8v4.9h-.8a5.26,5.26,0,0,0-1.8-2.8,4.72,4.72,0,0,0-3-1,4,4,0,0,0-2.4.7,2.32,2.32,0,0,0-.9,1.9,2,2,0,0,0,.7,1.6,5.45,5.45,0,0,0,2.4,1.2l2.1.8a10.23,10.23,0,0,1,3.7,2,4.3,4.3,0,0,1,1.1,2.8,4.8,4.8,0,0,1-1.7,3.7,6.71,6.71,0,0,1-4.4,1.5,8,8,0,0,1-3-.6,13.56,13.56,0,0,0-1.6-.6.76.76,0,0,0-.5.2C159.85,98,159.75,98.15,159.65,98.55Z"/>
    <path class="cls-3" d="M188.05,81.25l.2,4.2h-.9a3.84,3.84,0,0,0-1.1-2.3,4,4,0,0,0-2.6-.6H182v13a1.55,1.55,0,0,0,.5,1.4,2.54,2.54,0,0,0,1.7.4v.9h-7.1v-.8a3.29,3.29,0,0,0,1.7-.4,1.55,1.55,0,0,0,.5-1.4V82.55h-1.7a4,4,0,0,0-2.6.6,3.84,3.84,0,0,0-1.1,2.3h-.8l.2-4.2Z"/>
    <path class="cls-3" d="M186.55,98.25v-.9a1.76,1.76,0,0,0,1.3-.6,4,4,0,0,0,1-1.5l6.5-14h1l6.3,13.9a3.55,3.55,0,0,0,1.1,1.6,3,3,0,0,0,1.6.5v.9H198v-.9a2.6,2.6,0,0,0,1.5-.4,1,1,0,0,0,.5-.8,1.27,1.27,0,0,0-.1-.6,6.37,6.37,0,0,1-.2-.7l-1-2.2h-7l-.9,2.2a1.42,1.42,0,0,0-.2.6,4.33,4.33,0,0,1-.1.5.91.91,0,0,0,.4.8,4.42,4.42,0,0,0,1.5.5v.9h-5.9v.2Zm5.7-7h5.8l-2.7-6.6Z"/>
    <path class="cls-3" d="M218.45,81.25l.2,4.2h-.9a3.84,3.84,0,0,0-1.1-2.3,4,4,0,0,0-2.6-.6h-1.7v13a1.55,1.55,0,0,0,.5,1.4,2.54,2.54,0,0,0,1.7.4v.9h-7.1v-.8a3.29,3.29,0,0,0,1.7-.4,1.55,1.55,0,0,0,.5-1.4V82.55h-1.8a4.75,4.75,0,0,0-2.6.6,3.84,3.84,0,0,0-1.1,2.3h-.9l.2-4.2Z"/>
    <path class="cls-3" d="M219.85,98.25v-.9a2.93,2.93,0,0,0,1.6-.4,2.39,2.39,0,0,0,.5-1.4V84.15a1.55,1.55,0,0,0-.5-1.4,2.28,2.28,0,0,0-1.6-.4v-.8h13.8v3.7h-.9a2.46,2.46,0,0,0-.9-1.9,3.72,3.72,0,0,0-2.3-.5h-4.9V89h2.6a2.16,2.16,0,0,0,1.7-.5,2.79,2.79,0,0,0,.6-1.8h.8v5.9h-.8a2.79,2.79,0,0,0-.6-1.8,1.84,1.84,0,0,0-1.6-.5h-2.7v5A2.15,2.15,0,0,0,225,97a3.29,3.29,0,0,0,1.7.4h3.5a3.41,3.41,0,0,0,2.2-.7,5,5,0,0,0,1.3-2.2h.9l-.8,4.2-14-.4Z"/>
    <path class="cls-3" d="M257,84.15a2,2,0,0,0-.5-1.5,2.35,2.35,0,0,0-1.6-.5h-.1v-.8h5.8v.8a2.35,2.35,0,0,0-1.6.5,2,2,0,0,0-.5,1.5v7.6a7.64,7.64,0,0,1-1.6,5.3,7.18,7.18,0,0,1-5.1,1.7,8.3,8.3,0,0,1-5.2-1.5,6.1,6.1,0,0,1-1.7-4.7v-8.4a1.55,1.55,0,0,0-.5-1.4,3,3,0,0,0-1.6-.5v-.8h6.9v.8a3.29,3.29,0,0,0-1.7.4,1.55,1.55,0,0,0-.5,1.4v8.2a5.57,5.57,0,0,0,1.1,3.7,4.44,4.44,0,0,0,3.5,1.2,5,5,0,0,0,3.7-1.3,6.14,6.14,0,0,0,1.2-4.2v-7.5Z"/>
    <path class="cls-3" d="M265.45,95.35a2.1,2.1,0,0,0,.5,1.5,2.69,2.69,0,0,0,1.5.5h.2v.9h-5.8v-.9h.1a2.1,2.1,0,0,0,1.5-.5,2,2,0,0,0,.5-1.5V83.05a2.7,2.7,0,0,0-.8-.7,2.66,2.66,0,0,0-1.2-.3v-.8h4.5l10,12.4v-9.5a2,2,0,0,0-.5-1.5,2.62,2.62,0,0,0-1.7-.5v-.8h5.9v.8a2.35,2.35,0,0,0-1.6.5,2,2,0,0,0-.5,1.5v14.3h-.9l-11.6-14.2Z"/>
    <path class="cls-3" d="M286.25,95.45a1.55,1.55,0,0,0,.5,1.4,2.54,2.54,0,0,0,1.7.4v.8h-7.1v-.9a3.29,3.29,0,0,0,1.7-.4,1.87,1.87,0,0,0,.5-1.4V84.05a1.55,1.55,0,0,0-.5-1.4,2.54,2.54,0,0,0-1.7-.4v-.8h7.1v.8a3.29,3.29,0,0,0-1.7.4,1.87,1.87,0,0,0-.5,1.4Z"/>
    <path class="cls-3" d="M302.65,84.65a1.42,1.42,0,0,0,.2-.6c0-.2.1-.3.1-.5a1.39,1.39,0,0,0-.5-1,2.3,2.3,0,0,0-1.4-.4v-.8H307v.8a2.23,2.23,0,0,0-1.3.6,4,4,0,0,0-1,1.5l-6.3,14h-1l-6.1-13.9a4,4,0,0,0-1-1.5,3.51,3.51,0,0,0-1.4-.6v-.8h7.2v.8a3.65,3.65,0,0,0-1.5.3,1,1,0,0,0-.5.8,1.27,1.27,0,0,0,.1.6,6.39,6.39,0,0,1,.2.7l4.3,10.1Z"/>
    <path class="cls-3" d="M307.25,98.25v-.9a2.93,2.93,0,0,0,1.6-.4,2.39,2.39,0,0,0,.5-1.4V84.15a1.55,1.55,0,0,0-.5-1.4,2.28,2.28,0,0,0-1.6-.4v-.8H321v3.7h-.9a2.46,2.46,0,0,0-.9-1.9,3.87,3.87,0,0,0-2.4-.5h-5V89h2.6a2.16,2.16,0,0,0,1.7-.5,2.79,2.79,0,0,0,.6-1.8h.9v5.9h-.8a2.79,2.79,0,0,0-.6-1.8,1.84,1.84,0,0,0-1.6-.5h-2.8v5a2.15,2.15,0,0,0,.4,1.6,3.17,3.17,0,0,0,1.6.4h3.5a3.41,3.41,0,0,0,2.2-.7,5,5,0,0,0,1.3-2.2h.9l-.8,4.2Z"/>
    <path class="cls-3" d="M331,81.25a10.39,10.39,0,0,1,5.2,1.1,3.73,3.73,0,0,1,1.7,3.4,3.47,3.47,0,0,1-1.1,2.6,7.45,7.45,0,0,1-3.2,1.6l3.9,5.6a3.45,3.45,0,0,0,1.2,1.2,2.77,2.77,0,0,0,1.3.3v1h-4l-5.3-7.7h-2.5v5.1a1.55,1.55,0,0,0,.5,1.4,2.54,2.54,0,0,0,1.7.4h.1v.9h-7.1v-.9a2.93,2.93,0,0,0,1.6-.4,2.39,2.39,0,0,0,.5-1.4V84a1.55,1.55,0,0,0-.5-1.4,2.28,2.28,0,0,0-1.6-.4v-.8Zm-2.7,1.3v6.6h2.3a6.56,6.56,0,0,0,3.6-.8,3,3,0,0,0,1.2-2.4,2.79,2.79,0,0,0-1.2-2.5,6.71,6.71,0,0,0-3.7-.8,16.2,16.2,0,0,0-2.2-.1Z"/>
    <path class="cls-3" d="M342.35,98.55h-.9l-.2-5.5h.8a6.61,6.61,0,0,0,2.2,3.2,5.39,5.39,0,0,0,3.2,1.1,4.39,4.39,0,0,0,2.7-.9,2.84,2.84,0,0,0,1-2.2,2.41,2.41,0,0,0-.7-1.8A7.68,7.68,0,0,0,348,91l-1.9-.7a9.18,9.18,0,0,1-3.5-1.9,3.78,3.78,0,0,1-1-2.7,4.48,4.48,0,0,1,1.5-3.4,5.79,5.79,0,0,1,4.1-1.3,6.87,6.87,0,0,1,2.4.5,7.84,7.84,0,0,0,1.4.5.76.76,0,0,0,.5-.2,2.09,2.09,0,0,0,.4-.6h.8l.1,4.9H352a5.26,5.26,0,0,0-1.8-2.8,4.72,4.72,0,0,0-3-1,4,4,0,0,0-2.4.7,2.46,2.46,0,0,0-.9,1.9,2,2,0,0,0,.7,1.6,5.45,5.45,0,0,0,2.4,1.2l2.1.8a10.23,10.23,0,0,1,3.7,2,4.3,4.3,0,0,1,1.1,2.8,4.8,4.8,0,0,1-1.7,3.7,6.71,6.71,0,0,1-4.4,1.5,8,8,0,0,1-3-.6,13.56,13.56,0,0,0-1.6-.6.76.76,0,0,0-.5.2C342.55,98,342.45,98.25,342.35,98.55Z"/>
    <path class="cls-3" d="M361,95.45a1.55,1.55,0,0,0,.5,1.4,2.54,2.54,0,0,0,1.7.4v.8h-7.1v-.9a3.29,3.29,0,0,0,1.7-.4,1.87,1.87,0,0,0,.5-1.4V84.05a1.55,1.55,0,0,0-.5-1.4,2.54,2.54,0,0,0-1.7-.4v-.8h7.1v.8a3.29,3.29,0,0,0-1.7.4,1.87,1.87,0,0,0-.5,1.4Z"/>
    <path class="cls-3" d="M379.25,81.25l.2,4.2h-.8a3.84,3.84,0,0,0-1.1-2.3,4,4,0,0,0-2.6-.6h-1.7v13a1.55,1.55,0,0,0,.5,1.4,2.54,2.54,0,0,0,1.7.4v.9h-7.1v-.8a3.29,3.29,0,0,0,1.7-.4,1.55,1.55,0,0,0,.5-1.4V82.55h-1.7a4,4,0,0,0-2.6.6,3.84,3.84,0,0,0-1.1,2.3h-.9l.2-4.2Z"/>
    <path class="cls-3" d="M389.75,90.85v4.7a1.55,1.55,0,0,0,.5,1.4,2.54,2.54,0,0,0,1.7.4v.9h-7.1v-.9a3.29,3.29,0,0,0,1.7-.4,1.55,1.55,0,0,0,.5-1.4V91l-4.9-6.4-.1-.1a4.92,4.92,0,0,0-2.8-2.3v-.8h7.1v.8a5.85,5.85,0,0,0-1.3.2.67.67,0,0,0-.4.7c0,.2.1.4.1.6a2.51,2.51,0,0,0,.4.7l3.7,5.1,3.6-5a1.61,1.61,0,0,0,.4-.7,1.27,1.27,0,0,0,.1-.6,1.23,1.23,0,0,0-.4-.8,2.77,2.77,0,0,0-1.3-.3H391v-.8h6.2v.8a3,3,0,0,0-1.3.5,5.39,5.39,0,0,0-1.4,1.6Z"/>
</svg>