<svg xmlns="http://www.w3.org/2000/svg" width="27" height="26" viewBox="0 0 27 26">
    <path fill="#000" fill-rule="nonzero" d="M13.486 0a.907.907 0 0 0-.893.907v15.958L6.887 11.16a.907.907 0 0 0-1.282 1.283l7.254 7.255.01.008.002.002a.893.893 0 0 0 .028.026l.038.033.002.002.023.017.003.002.043.03.004.003.032.02.004.002.037.02.005.003.033.015.005.002.037.017.005.002.04.015.007.001.032.011.006.002.04.01.006.001a.362.362 0 0 0 .038.008h.005a.565.565 0 0 0 .04.006l.004.001a.5.5 0 0 0 .043.004h.002l.047.002h.045a.884.884 0 0 0 .08-.006l-.003.001c.007 0 .008-.002.01-.002l-.005.001a.837.837 0 0 0 .062-.01h-.005c.02-.003.035-.007.049-.01l-.007.002a.719.719 0 0 0 .041-.01l-.006.001.06-.018-.006.002.039-.015-.006.003a.527.527 0 0 0 .053-.023l-.005.002.073-.037-.004.003.005-.004-.003.002a.751.751 0 0 0 .055-.034l-.003.002c.015-.01.027-.017.038-.026l-.003.002c.023-.017.042-.032.06-.048v.001c0-.002.003-.004.005-.006.015-.012.03-.024.042-.037l7.253-7.253a.907.907 0 0 0-.632-1.557h-.028.002a.905.905 0 0 0-.623.273l-5.706 5.707V.922.91A.907.907 0 0 0 13.5.003h-.014V0zM1.713 23.588H1.7a.907.907 0 1 0 0 1.813H25.3a.907.907 0 1 0 0-1.813H1.712z"/>
</svg>
