<svg xmlns="http://www.w3.org/2000/svg" xmlns:xlink="http://www.w3.org/1999/xlink" width="24" height="20" viewBox="0 0 24 20">
    <defs>
        <path id="a" d="M26 47.368a9.505 9.505 0 0 1-2.83.793 5.055 5.055 0 0 0 2.168-2.791 9.7 9.7 0 0 1-3.13 1.225A4.862 4.862 0 0 0 18.618 45c-2.72 0-4.925 2.26-4.925 5.048 0 .395.044.783.128 1.153-4.092-.213-7.721-2.222-10.15-5.276a5.12 5.12 0 0 0-.666 2.54c0 1.75.869 3.294 2.19 4.201a4.836 4.836 0 0 1-2.231-.63v.064c0 2.445 1.698 4.484 3.952 4.948a4.864 4.864 0 0 1-1.297.179c-.317 0-.628-.031-.928-.092.627 2.005 2.447 3.467 4.6 3.505A9.726 9.726 0 0 1 2 62.73 13.651 13.651 0 0 0 9.547 65c9.056 0 14.009-7.693 14.009-14.363 0-.22-.004-.436-.014-.651A10.252 10.252 0 0 0 26 47.368z"/>
    </defs>
    <g fill="none" fill-rule="evenodd" transform="translate(-2 -45)">
        <use fill="#1EA1F1" xlink:href="#a"/>
        <use fill="#000" fill-opacity=".4" style="mix-blend-mode:darken" xlink:href="#a"/>
    </g>
</svg>