<svg xmlns="http://www.w3.org/2000/svg" xmlns:xlink="http://www.w3.org/1999/xlink" width="27" height="28" viewBox="0 0 27 28">
    <defs>
        <path id="a" d="M6.043.33a.675.675 0 0 0-.611.674v6.044H.675a.675.675 0 0 0-.063 0A.675.675 0 0 0 0 7.722v11.76c0 .373.302.675.675.675h4.757v6.497c0 .373.302.675.675.675h14.786a.675.675 0 0 0 .675-.675v-6.497h4.757a.675.675 0 0 0 .675-.675V7.722a.675.675 0 0 0-.675-.674H6.782V1.679h13.436v3.66a.675.675 0 1 0 1.35 0V1.004a.675.675 0 0 0-.675-.675H6.107a.9.9 0 0 0-.064 0zM1.35 8.396h24.3v10.41h-4.082v-.96h.2a.675.675 0 1 0 0-1.35H5.232a.675.675 0 1 0 0 1.35h.2v.96H1.35V8.397zm21.568 1.15a.675.675 0 1 0 0 1.35h1.118a.675.675 0 1 0 0-1.35h-1.118zm-16.136 8.3h13.436v8.132H6.782v-8.132zM8.49 19.04a.675.675 0 1 0 0 1.35h2.647a.675.675 0 1 0 0-1.35H8.49zm0 2.289a.675.675 0 1 0 0 1.35h5.558a.675.675 0 1 0 0-1.35H8.49zm-.074 2.288a.676.676 0 1 0 .074 1.35h2.647a.675.675 0 1 0 0-1.35H8.49a.675.675 0 0 0-.074 0z"/>
    </defs>
    <g fill="none" fill-rule="evenodd">
        <path fill="#DDD" d="M1 8h25v11h-5.5v-1.5H6V19H1z"/>
        <path fill="#FFF" d="M1 14h25v1H1z"/>
        <g fill-rule="nonzero">
            <use fill="#4D4D4F" xlink:href="#a"/>
            <use fill="#000" xlink:href="#a"/>
        </g>
        <path fill="#C00" d="M22.918 9.547a.675.675 0 1 0 0 1.35h1.118a.675.675 0 1 0 0-1.35h-1.118z"/>
        <path fill="#000" fill-opacity=".403" d="M1 8h5V1h15.5v7H26v11h-5.5v7.5H6V19H1z"/>
    </g>
</svg>
