<?xml version="1.0" encoding="iso-8859-1"?>
<!-- Generator: Adobe Illustrator 19.0.0, SVG Export Plug-In . SVG Version: 6.00 Build 0)  -->
<svg version="1.1" id="Layer_1" xmlns="http://www.w3.org/2000/svg" xmlns:xlink="http://www.w3.org/1999/xlink" x="0px" y="0px"
		viewBox="0 5 352 300" style="enable-background:new 0 5 352 300" xml:space="preserve">
	<g>
		<g>
			<path d="M239.615,115.766c-0.602-1.118-1.376-1.72-2.494-1.72h-22.276V50.916c0-1.72-1.118-2.838-2.838-2.838h-71.644
				c-1.72,0-2.838,1.118-2.838,2.838v63.129h-21.674c-1.118,0-1.978,0.602-2.494,1.72c-0.602,1.118-0.258,2.236,0.258,3.097
				l60.635,74.396c0.602,0.86,1.376,1.118,2.236,1.118s1.72-0.602,2.236-1.118l60.635-74.396
				C239.959,118.002,240.217,116.884,239.615,115.766z M176.485,187.066l-54.701-67.086h18.579c1.72,0,2.838-1.118,2.838-2.838
				V54.013h65.967v63.129c0,1.72,1.118,2.838,2.838,2.838h19.179L176.485,187.066z"/>
		</g>
	</g>
	<g>
		<g>
			<path d="M192.828,94.78c-1.72,0-2.838,1.118-2.838,2.838v40.853l-13.503,16.599l-13.847-16.943V73.278h30.189
				c1.72,0,2.838-1.118,2.838-2.838s-1.118-2.838-2.838-2.838h-32.941c-1.72,0-2.838,1.118-2.838,2.838v68.806
				c0,0.602,0.258,1.118,0.602,1.72l16.599,20.298c0.602,0.86,1.376,1.118,2.236,1.118c0.86,0.171,1.376-0.087,2.236-1.291
				l16.341-20.04c0.258-0.258,0.602-1.118,0.602-1.72V97.618C195.666,95.898,194.548,94.78,192.828,94.78z"/>
		</g>
	</g>
	<g>
		<g>
			<path d="M352.371,235.574v-9.547c0-4.817-2.408-8.773-6.45-10.923l-0.086-0.086l-43.95-43.089
				c-5.075-5.074-11.869-7.913-18.577-7.913h-62.871c-1.72,0-2.838,1.118-2.838,2.838c0,1.72,1.118,2.838,2.838,2.838h62.871
				c5.075,0,10.407,2.236,14.621,6.193l38.187,37.499H222.93c-1.72,0-2.838,1.118-2.838,2.838
				c-0.258,23.652-20.298,43.691-43.95,43.691s-43.95-20.04-43.95-43.691c0-1.72-1.118-2.838-2.838-2.838H15.911l38.187-37.5
				c4.214-3.956,9.891-6.192,14.965-6.192h62.871c1.72,0,2.838-1.118,2.838-2.838s-1.118-2.838-2.838-2.838H69.064
				c-6.45,0-13.245,2.838-18.577,7.913L6.278,215.276C2.494,217.426,0,221.296,0,226.027v63.387c0,7.913,6.45,14.965,13.847,14.965
				H338.61c7.311,0,13.847-7.052,13.847-14.965L352.371,235.574z M346.78,289.672c0,4.817-3.956,9.289-8.171,9.289H13.847
				c-4.472,0-8.171-5.074-8.171-9.289v-51.346h104.584c1.376,0,2.838-1.118,2.838-2.838c0-1.72-1.118-2.838-2.838-2.838H5.677v-6.45
				c0-4.817,4.214-7.052,8.171-7.052h112.755c1.72,25.372,23.652,46.53,49.626,46.53s47.906-20.9,49.626-46.53h112.755
				c3.956,0,8.171,2.236,8.171,7.052v6.45H242.196c-1.72,0-2.838,1.118-2.838,2.838c0,1.72,1.118,2.838,2.838,2.838H346.78V289.672z"
				/>
		</g>
	</g>
	<g>
	</g>
	<g>
	</g>
	<g>
	</g>
	<g>
	</g>
	<g>
	</g>
	<g>
	</g>
	<g>
	</g>
	<g>
	</g>
	<g>
	</g>
	<g>
	</g>
	<g>
	</g>
	<g>
	</g>
	<g>
	</g>
	<g>
	</g>
	<g>
	</g>
</svg>
