<?xml version="1.0"?>
<svg xmlns="http://www.w3.org/2000/svg" viewBox="5 5 70 70">
    <path style="line-height:normal;text-indent:0;text-align:start;text-decoration-line:none;text-decoration-style:solid;text-decoration-color:#000;text-transform:none;block-progression:tb;isolation:auto;mix-blend-mode:normal" d="M 22 7 L 22 8 L 22 16 L 20 16 C 18.35503 16 17 17.35503 17 19 L 17 21 L 14 21 C 12.35503 21 11 22.35503 11 24 L 11 35.416016 C 9.8933056 35.85942 9 36.743378 9 38 L 9 60 C 9 61.64497 10.35503 63 12 63 L 22 63 L 22 73 L 58 73 L 58 63 L 68 63 C 69.64497 63 71 61.64497 71 60 L 71 38 C 71 36.743378 70.106694 35.85942 69 35.416016 L 69 24 C 69 22.35503 67.64497 21 66 21 L 63 21 L 63 19 C 63 17.35503 61.64497 16 60 16 L 58 16 L 58 7 L 22 7 z M 24 9 L 56 9 L 56 16 L 56 23 L 56 28 L 24 28 L 24 23 L 24 16 L 24 9 z M 20 18 L 22 18 L 22 21 L 19 21 L 19 19 C 19 18.43497 19.43497 18 20 18 z M 58 18 L 60 18 C 60.56503 18 61 18.43497 61 19 L 61 21 L 58 21 L 58 18 z M 14 23 L 17 23 L 22 23 L 22 26 C 20.895 26 20 26.895 20 28 C 20 29.105 20.895 30 22 30 L 58 30 C 59.105 30 60 29.105 60 28 C 60 26.895 59.105 26 58 26 L 58 23 L 63 23 L 66 23 C 66.56503 23 67 23.43497 67 24 L 67 37 L 68 37 C 68.56503 37 69 37.43497 69 38 L 69 60 C 69 60.56503 68.56503 61 68 61 L 58 61 L 58 57 C 59.105 57 60 56.105 60 55 C 60 53.895 59.105 53 58 53 L 22 53 C 20.895 53 20 53.895 20 55 C 20 56.105 20.895 57 22 57 L 22 61 L 12 61 C 11.43497 61 11 60.56503 11 60 L 11 38 C 11 37.43497 11.43497 37 12 37 L 13 37 L 13 24 C 13 23.43497 13.43497 23 14 23 z M 16 35 A 1 1 0 0 0 15 36 A 1 1 0 0 0 16 37 A 1 1 0 0 0 17 36 A 1 1 0 0 0 16 35 z M 20 35 A 1 1 0 0 0 19 36 A 1 1 0 0 0 20 37 A 1 1 0 0 0 21 36 A 1 1 0 0 0 20 35 z M 24 35 A 1 1 0 0 0 23 36 A 1 1 0 0 0 24 37 A 1 1 0 0 0 25 36 A 1 1 0 0 0 24 35 z M 28 35 A 1 1 0 0 0 27 36 A 1 1 0 0 0 28 37 A 1 1 0 0 0 29 36 A 1 1 0 0 0 28 35 z M 32 35 A 1 1 0 0 0 31 36 A 1 1 0 0 0 32 37 A 1 1 0 0 0 33 36 A 1 1 0 0 0 32 35 z M 36 35 A 1 1 0 0 0 35 36 A 1 1 0 0 0 36 37 A 1 1 0 0 0 37 36 A 1 1 0 0 0 36 35 z M 40 35 A 1 1 0 0 0 39 36 A 1 1 0 0 0 40 37 A 1 1 0 0 0 41 36 A 1 1 0 0 0 40 35 z M 44 35 A 1 1 0 0 0 43 36 A 1 1 0 0 0 44 37 A 1 1 0 0 0 45 36 A 1 1 0 0 0 44 35 z M 48 35 A 1 1 0 0 0 47 36 A 1 1 0 0 0 48 37 A 1 1 0 0 0 49 36 A 1 1 0 0 0 48 35 z M 52 35 A 1 1 0 0 0 51 36 A 1 1 0 0 0 52 37 A 1 1 0 0 0 53 36 A 1 1 0 0 0 52 35 z M 56 35 A 1 1 0 0 0 55 36 A 1 1 0 0 0 56 37 A 1 1 0 0 0 57 36 A 1 1 0 0 0 56 35 z M 60 35 A 1 1 0 0 0 59 36 A 1 1 0 0 0 60 37 A 1 1 0 0 0 61 36 A 1 1 0 0 0 60 35 z M 64 35 A 1 1 0 0 0 63 36 A 1 1 0 0 0 64 37 A 1 1 0 0 0 65 36 A 1 1 0 0 0 64 35 z M 63 41 A 2 2 0 0 0 61 43 A 2 2 0 0 0 63 45 A 2 2 0 0 0 65 43 A 2 2 0 0 0 63 41 z M 24 55 L 56 55 L 56 71 L 24 71 L 24 55 z M 31 60 L 31 62 L 49 62 L 49 60 L 31 60 z M 31 65 L 31 67 L 49 67 L 49 65 L 31 65 z"/>
</svg>
