<svg xmlns="http://www.w3.org/2000/svg" viewBox="0 0 70 60">
    <path d="M 23.65625 4 C 22.32025 4 21.065094 4.5208437 20.121094 5.4648438 L 13.464844 12.121094 C 12.520844 13.066094 12 14.32125 12 15.65625 L 12 22.433594 L 3.4550781 27.560547 C 2.5570781 28.099547 2 29.084812 2 30.132812 L 2 57 C 2 58.654 3.346 60 5 60 L 59 60 C 60.654 60 62 58.654 62 57 L 62 30.132812 C 62 29.084812 61.442922 28.099547 60.544922 27.560547 L 52 22.433594 L 52 7 C 52 5.346 50.654 4 49 4 L 23.65625 4 z M 24 6 L 49 6 C 49.552 6 50 6.449 50 7 L 50 31 C 50 31.552 50.447 32 51 32 C 51.553 32 52 31.552 52 31 L 52 24.767578 L 59.515625 29.275391 C 59.815625 29.455391 60 29.783812 60 30.132812 L 60 31.351562 L 33.226562 43.353516 C 32.447562 43.703516 31.552437 43.703516 30.773438 43.353516 L 4 31.351562 L 4 30.132812 C 4 29.783812 4.185375 29.454391 4.484375 29.275391 L 12 24.765625 L 12 31 C 12 31.552 12.447 32 13 32 C 13.553 32 14 31.552 14 31 L 14 16 L 21 16 C 22.654 16 24 14.654 24 13 L 24 6 z M 22 6.4980469 L 22 13 C 22 13.551 21.552 14 21 14 L 14.498047 14 C 14.608047 13.835 14.734906 13.679156 14.878906 13.535156 L 21.535156 6.8789062 C 21.679156 6.7349062 21.834 6.6080469 22 6.4980469 z M 31 16 C 27.141 16 24 19.14 24 23 L 24 29 C 24 32.86 27.141 36 31 36 L 37 36 C 37.553 36 38 35.552 38 35 C 38 34.448 37.553 34 37 34 L 31 34 C 28.243 34 26 31.757 26 29 L 26 23 C 26 20.243 28.243 18 31 18 L 33 18 C 35.757 18 38 20.243 38 23 L 38 29 C 38 29.551 37.552 30 37 30 C 36.448 30 36 29.551 36 29 L 36 28 L 36 26 L 36 24 C 36 21.794 34.206 20 32 20 C 29.794 20 28 21.794 28 24 L 28 28 C 28 30.206 29.794 32 32 32 C 33.05 32 34.000844 31.584922 34.714844 30.919922 C 35.265844 31.574922 36.08 32 37 32 C 38.654 32 40 30.654 40 29 L 40 23 C 40 19.14 36.859 16 33 16 L 31 16 z M 32 22 C 33.103 22 34 22.897 34 24 L 34 26 L 34 28 C 34 29.103 33.103 30 32 30 C 30.897 30 30 29.103 30 28 L 30 24 C 30 22.897 30.897 22 32 22 z M 4 33.544922 L 29.955078 45.179688 C 30.605078 45.470687 31.303 45.615234 32 45.615234 C 32.697 45.615234 33.395922 45.470688 34.044922 45.179688 L 60 33.544922 L 60 57 C 60 57.551 59.552 58 59 58 L 5 58 C 4.448 58 4 57.551 4 57 L 4 33.544922 z M 7 50 C 6.447 50 6 50.448 6 51 L 6 53 C 6 53.552 6.447 54 7 54 C 7.553 54 8 53.552 8 53 L 8 51 C 8 50.448 7.553 50 7 50 z M 12 50 C 11.447 50 11 50.448 11 51 L 11 53 C 11 53.552 11.447 54 12 54 C 12.553 54 13 53.552 13 53 L 13 51 C 13 50.448 12.553 50 12 50 z M 17 50 C 16.447 50 16 50.448 16 51 L 16 53 C 16 53.552 16.447 54 17 54 C 17.553 54 18 53.552 18 53 L 18 51 C 18 50.448 17.553 50 17 50 z M 22 50 C 21.447 50 21 50.448 21 51 L 21 53 C 21 53.552 21.447 54 22 54 C 22.553 54 23 53.552 23 53 L 23 51 C 23 50.448 22.553 50 22 50 z M 27 50 C 26.447 50 26 50.448 26 51 L 26 53 C 26 53.552 26.447 54 27 54 C 27.553 54 28 53.552 28 53 L 28 51 C 28 50.448 27.553 50 27 50 z M 32 50 C 31.447 50 31 50.448 31 51 L 31 53 C 31 53.552 31.447 54 32 54 C 32.553 54 33 53.552 33 53 L 33 51 C 33 50.448 32.553 50 32 50 z M 37 50 C 36.447 50 36 50.448 36 51 L 36 53 C 36 53.552 36.447 54 37 54 C 37.553 54 38 53.552 38 53 L 38 51 C 38 50.448 37.553 50 37 50 z M 42 50 C 41.447 50 41 50.448 41 51 L 41 53 C 41 53.552 41.447 54 42 54 C 42.553 54 43 53.552 43 53 L 43 51 C 43 50.448 42.553 50 42 50 z M 47 50 C 46.447 50 46 50.448 46 51 L 46 53 C 46 53.552 46.447 54 47 54 C 47.553 54 48 53.552 48 53 L 48 51 C 48 50.448 47.553 50 47 50 z M 52 50 C 51.447 50 51 50.448 51 51 L 51 53 C 51 53.552 51.447 54 52 54 C 52.553 54 53 53.552 53 53 L 53 51 C 53 50.448 52.553 50 52 50 z M 57 50 C 56.447 50 56 50.448 56 51 L 56 53 C 56 53.552 56.447 54 57 54 C 57.553 54 58 53.552 58 53 L 58 51 C 58 50.448 57.553 50 57 50 z"/>
</svg>