<svg xmlns="http://www.w3.org/2000/svg" xmlns:xlink="http://www.w3.org/1999/xlink" version="1.1" id="Layer_1" x="0px" y="0px" viewBox="0 0 40 40" style="enable-background:new 0 0 40 40;" xml:space="preserve">
    <g>
        <g>
            <path style="fill:#B0C1D4;" d="M4,31.5c-1.378,0-2.5-1.122-2.5-2.5V13c0-1.378,1.122-2.5,2.5-2.5h3.5v-2h25v2H36    c1.378,0,2.5,1.122,2.5,2.5v16c0,1.378-1.122,2.5-2.5,2.5H4z"/>
        </g>
        <g>
            <path style="fill:#66798F;" d="M32,9v1v1h1h3c1.103,0,2,0.897,2,2v16c0,1.103-0.897,2-2,2H4c-1.103,0-2-0.897-2-2V13    c0-1.103,0.897-2,2-2h3h1v-1V9H32 M33,8H7v2H4c-1.657,0-3,1.343-3,3v16c0,1.657,1.343,3,3,3h32c1.657,0,3-1.343,3-3V13    c0-1.657-1.343-3-3-3h-3V8L33,8z"/>
        </g>
    </g>
    <g>
        <rect x="8.5" y="1.5" style="fill:#FFFFFF;" width="23" height="10"/>
        <g>
            <path style="fill:#788B9C;" d="M31,2v9H9V2H31 M32,1H8v11h24V1L32,1z"/>
        </g>
    </g>
    <g>
        <path style="fill:#8BB7F0;" d="M11,20.5c-1.378,0-2.5-1.122-2.5-2.5v-7.5h23V18c0,1.378-1.122,2.5-2.5,2.5H11z"/>
        <g>
            <path style="fill:#4E7AB5;" d="M31,11v7c0,1.103-0.897,2-2,2H11c-1.103,0-2-0.897-2-2v-7H31 M32,10H8v8c0,1.657,1.343,3,3,3h18    c1.657,0,3-1.343,3-3V10L32,10z"/>
        </g>
    </g>
    <g>
        <rect x="8.5" y="25.5" style="fill:#FFFFFF;" width="23" height="13"/>
        <g>
            <path style="fill:#788B9C;" d="M31,26v12H9V26H31 M32,25H8v14h24V25L32,25z"/>
        </g>
    </g>
    <rect x="9" y="26" style="fill:#D6E3ED;" width="22" height="3"/>
    <line style="fill:#FFFFFF;stroke:#788B9C;stroke-miterlimit:10;" x1="13.214" y1="29.5" x2="26.786" y2="29.5"/>
    <line style="fill:#FFFFFF;stroke:#788B9C;stroke-miterlimit:10;" x1="13.214" y1="33.5" x2="26.786" y2="33.5"/>
    <g>
        <circle style="fill:#FFEEA3;" cx="35" cy="15" r="1"/>
    </g>
    <path style="fill:#66798F;" d="M9,28v-2h22v2h1.5c0.828,0,1.5-0.672,1.5-1.5v0c0-0.828-0.672-1.5-1.5-1.5h-25  C6.672,25,6,25.672,6,26.5v0C6,27.328,6.672,28,7.5,28H9z"/>
</svg>