<svg xmlns="http://www.w3.org/2000/svg" width="20" height="20" viewBox="0 0 20 20">
    <g fill="none" fill-rule="evenodd">
        <path d="M-12-12h43v43h-43z"/>
        <g fill="#969697">
            <path d="M9.886.006C7.2.006 6.864.018 5.81.066c-1.052.048-1.771.215-2.4.46-.65.252-1.201.59-1.75 1.14-.55.55-.888 1.1-1.141 1.75-.244.63-.411 1.348-.46 2.4C.011 6.871 0 7.207 0 9.892c0 2.685.011 3.021.06 4.076.048 1.052.215 1.77.459 2.4.253.65.59 1.2 1.14 1.75.55.55 1.101.888 1.751 1.14.629.245 1.348.412 2.4.46 1.054.048 1.391.06 4.076.06 2.685 0 3.021-.012 4.076-.06 1.052-.048 1.77-.215 2.4-.46a4.846 4.846 0 0 0 1.75-1.14c.55-.55.888-1.1 1.14-1.75.245-.63.412-1.348.46-2.4.048-1.055.06-1.391.06-4.076 0-2.685-.012-3.021-.06-4.076-.048-1.052-.215-1.77-.46-2.4a4.846 4.846 0 0 0-1.14-1.75c-.55-.55-1.1-.888-1.75-1.14-.63-.245-1.348-.412-2.4-.46-1.055-.048-1.391-.06-4.076-.06m0 1.781c2.64 0 2.952.01 3.994.058.964.044 1.488.205 1.836.34.462.18.79.394 1.137.74.346.346.56.675.74 1.137.135.348.296.871.34 1.835.047 1.043.057 1.355.057 3.995s-.01 2.952-.057 3.995c-.044.964-.205 1.487-.34 1.835-.18.462-.394.791-.74 1.137s-.675.56-1.137.74c-.348.135-.872.296-1.836.34-1.042.047-1.354.058-3.994.058s-2.953-.01-3.995-.058c-.964-.044-1.487-.205-1.836-.34a3.063 3.063 0 0 1-1.136-.74 3.063 3.063 0 0 1-.74-1.137c-.135-.348-.296-.871-.34-1.835-.048-1.043-.058-1.355-.058-3.995s.01-2.952.058-3.995c.044-.964.205-1.487.34-1.835.18-.462.394-.791.74-1.137s.675-.56 1.136-.74c.349-.135.872-.296 1.836-.34 1.043-.047 1.355-.058 3.995-.058"/>
            <path d="M9.778 13.318a3.318 3.318 0 1 1 0-6.636 3.318 3.318 0 0 1 0 6.636m0-8.43a5.111 5.111 0 1 0 0 10.223 5.111 5.111 0 0 0 0-10.222M16.444 4.556a1.222 1.222 0 1 1-2.444 0 1.222 1.222 0 0 1 2.444 0"/>
        </g>
    </g>
</svg>
