<svg xmlns="http://www.w3.org/2000/svg" width="27" height="25" viewBox="0 0 27 25">
    <path fill="#969697" fill-rule="evenodd" d="M23.372 11.459l-.702.707-9.17 9.245-9.17-9.243-.704-.71a5.506 5.506 0 0 1-1.602-3.9c0-1.473.57-2.86 1.602-3.9a5.414 5.414 0 0 1 3.87-1.616c1.462 0 2.836.573 3.869 1.615l.703.708a2.012 2.012 0 0 0 2.864 0l.702-.708a5.411 5.411 0 0 1 3.869-1.615c1.462 0 2.835.573 3.869 1.615a5.5 5.5 0 0 1 1.602 3.9 5.5 5.5 0 0 1-1.602 3.902m1.432-9.246A7.442 7.442 0 0 0 19.503 0 7.447 7.447 0 0 0 14.2 2.213l-.7.71-.704-.71A7.442 7.442 0 0 0 7.496 0a7.447 7.447 0 0 0-5.302 2.213c-2.925 2.952-2.925 7.739 0 10.69l.703.707L13.501 24.3l10.601-10.69.702-.707c2.927-2.951 2.927-7.738 0-10.69"/>
</svg>
