<svg xmlns="http://www.w3.org/2000/svg" width="20" height="20" viewBox="0 0 20 20">
    <path fill="#969697" fill-rule="evenodd" d="M10 0C4.477 0 0 4.477 0 10c0 4.236 2.636 7.858 6.356 9.315-.088-.791-.167-2.008.035-2.872.181-.78 1.172-4.97 1.172-4.97s-.299-.6-.299-1.485c0-1.39.806-2.428 1.81-2.428.853 0 1.265.64 1.265 1.408 0 .858-.547 2.14-.829 3.33-.235.995.5 1.807 1.481 1.807 1.778 0 3.144-1.874 3.144-4.58 0-2.394-1.72-4.068-4.177-4.068-2.845 0-4.516 2.134-4.516 4.34 0 .86.331 1.78.745 2.282a.3.3 0 0 1 .069.287c-.076.316-.245.995-.278 1.134-.043.183-.145.222-.334.133-1.25-.58-2.03-2.407-2.03-3.873 0-3.155 2.292-6.052 6.607-6.052 3.47 0 6.165 2.472 6.165 5.776 0 3.446-2.173 6.22-5.189 6.22-1.013 0-1.966-.527-2.292-1.149l-.623 2.378c-.226.868-.835 1.957-1.243 2.621.936.29 1.93.446 2.961.446 5.523 0 10-4.477 10-10S15.523 0 10 0"/>
</svg>
