<svg id="Capa_1" enable-background="new 0 0 512 512" height="512" viewBox="0 0 512 512" width="512" xmlns="http://www.w3.org/2000/svg"><g><path d="m499.499 435.763c-5.273-5.265-11.683-8.971-18.671-10.916.737-5.451 1.429-10.85 2.058-16.113 10.485-87.381 10.519-175.966.1-263.296-1.687-14.072-10.043-26.66-22.354-33.674-3.599-2.05-8.179-.795-10.229 2.804s-.795 8.179 2.804 10.229c8.198 4.671 13.763 13.054 14.886 22.422 10.277 86.144 10.244 173.528-.1 259.73-.637 5.329-1.338 10.797-2.087 16.321h-352.826c-4.142 0-7.5 3.358-7.5 7.5s3.358 7.5 7.5 7.5h356.23c7.397 0 14.354 2.879 19.583 8.099 5.228 5.237 8.107 12.191 8.107 19.582 0 15.268-12.422 27.69-27.69 27.69h-426.62c-7.399 0-14.355-2.881-19.583-8.109-5.228-5.236-8.107-12.19-8.107-19.581 0-15.263 12.422-27.68 27.69-27.68h37.11c4.142 0 7.5-3.358 7.5-7.5s-3.358-7.5-7.5-7.5h-33.705c-.749-5.526-1.45-10.996-2.088-16.326-10.344-86.199-10.377-173.584-.1-259.727 1.699-14.224 13.316-25.284 27.621-26.298 41.419-2.922 83.498-4.879 125.087-5.821l27.284 5.976c1.821.399 3.255 1.833 3.654 3.654l3.251 14.84c-45.012.436-90.56 2.053-135.549 4.846-7.142.444-13.634.87-19.847 1.304-3.597.251-6.506 3.027-6.926 6.608-9.665 82.37-9.661 166.046.009 248.706.419 3.583 3.329 6.359 6.927 6.61 6.224.434 12.712.861 19.838 1.304 53.493 3.314 107.575 4.994 160.744 4.994s107.25-1.68 160.745-4.995c7.125-.442 13.613-.869 19.837-1.303 3.598-.251 6.508-3.028 6.927-6.61 9.67-82.659 9.674-166.336.009-248.706-.42-3.581-3.33-6.356-6.926-6.608-6.213-.434-12.706-.86-19.848-1.304-44.989-2.792-90.536-4.409-135.549-4.845l3.251-14.84c.399-1.821 1.833-3.255 3.654-3.654l27.275-5.975c36.323.826 72.836 2.411 108.541 4.715.165.011.328.016.49.016 3.921 0 7.221-3.048 7.477-7.018.267-4.133-2.868-7.701-7.001-7.967-26.798-1.729-54.048-3.054-81.332-3.962 1.113-2.503 1.719-5.294 1.719-8.256 0-9.525-6.251-17.294-15.555-19.332l-41.614-9.115c-1.821-.399-3.255-1.833-3.654-3.654l-9.115-41.613c-2.037-9.305-9.806-15.556-19.331-15.556s-17.294 6.251-19.332 15.555l-9.115 41.614c-.399 1.821-1.833 3.255-3.654 3.654l-41.613 9.115c-9.305 2.038-15.556 9.807-15.556 19.332 0 2.963.606 5.755 1.719 8.258-32.698 1.088-65.539 2.782-97.98 5.071-21.471 1.523-38.906 18.127-41.457 39.483-10.418 87.326-10.385 175.911.101 263.289.63 5.269 1.322 10.674 2.061 16.133-17.961 5.038-31.174 21.544-31.174 41.088 0 11.393 4.437 22.11 12.497 30.183 8.065 8.065 18.788 12.507 30.193 12.507h426.62c23.539 0 42.69-19.151 42.69-42.69 0-11.392-4.437-22.11-12.501-30.188zm-83.685-276.377c4.758.296 9.226.584 13.513.871 8.586 77.158 8.583 155.429-.012 232.848-4.29.288-8.752.575-13.5.87-53.186 3.295-106.956 4.966-159.816 4.966s-106.63-1.67-159.814-4.965c-4.749-.295-9.212-.583-13.501-.871-8.595-77.419-8.598-155.689-.012-232.848 4.287-.287 8.755-.575 13.513-.871 45.772-2.841 92.128-4.461 137.898-4.847l2.586 11.804c2.038 9.305 9.807 15.556 19.332 15.556s17.294-6.251 19.332-15.555l2.586-11.804c45.768.386 92.124 2.006 137.895 4.846zm-230.319-71.437 41.614-9.115c7.523-1.648 13.449-7.574 15.097-15.097l9.115-41.614c.745-3.398 3.521-3.765 4.679-3.765s3.935.367 4.679 3.765l9.115 41.614c1.648 7.523 7.574 13.449 15.097 15.097l41.614 9.115c3.398.745 3.765 3.521 3.765 4.679s-.367 3.935-3.765 4.679l-41.614 9.115c-7.523 1.648-13.449 7.574-15.097 15.097l-9.115 41.614c-.745 3.398-3.521 3.765-4.679 3.765s-3.935-.367-4.679-3.765l-9.115-41.614c-1.648-7.523-7.574-13.449-15.097-15.097l-27.949-6.122c-.18-.044-.36-.088-.544-.119l-13.121-2.874c-3.398-.745-3.765-3.521-3.765-4.679s.367-3.934 3.765-4.679z"/><path d="m240.947 191.94c-8.026-4.167-16.976-6.356-26.058-6.356-31.22 0-56.619 25.399-56.619 56.619 0 9.082 2.19 18.032 6.356 26.058-.813 4.968-1.225 10.02-1.225 15.053 0 51.059 41.539 92.598 92.598 92.598 5.032 0 10.083-.412 15.052-1.225 8.026 4.166 16.976 6.356 26.059 6.356 31.22 0 56.619-25.399 56.619-56.619 0-9.082-2.19-18.031-6.356-26.058.813-4.968 1.225-10.019 1.225-15.052 0-51.059-41.539-92.598-92.598-92.598-5.032-.001-10.083.411-15.053 1.224zm92.651 91.373c0 4.998-.483 10.015-1.436 14.912-.349 1.791-.033 3.646.889 5.221 3.715 6.349 5.679 13.603 5.679 20.978 0 22.949-18.67 41.619-41.619 41.619-7.375 0-14.629-1.964-20.978-5.68-1.157-.677-2.465-1.027-3.788-1.027-.478 0-.958.045-1.433.138-4.899.953-9.917 1.437-14.912 1.437-42.788 0-77.598-34.81-77.598-77.598 0-4.997.483-10.015 1.436-14.913.349-1.79.032-3.646-.889-5.22-3.715-6.349-5.679-13.603-5.679-20.978 0-22.949 18.67-41.619 41.619-41.619 7.375 0 14.629 1.964 20.978 5.679 1.574.921 3.428 1.236 5.221.889 4.899-.953 9.917-1.437 14.912-1.437 42.788.001 77.598 34.812 77.598 77.599z"/><path d="m225.63 253.281c-1.366 9.518 2.755 18.67 10.756 23.887.332.216.679.405 1.041.566.494.221 12.25 5.454 25.498 10.34 9.602 3.542 14.472 9.135 13.363 15.346-1.08 6.046-7.839 12.471-18.242 12.471-9.458 0-18.592-3.848-24.434-10.294-2.781-3.069-7.524-3.303-10.594-.521-3.069 2.782-3.303 7.524-.521 10.594 8.637 9.531 21.927 15.222 35.549 15.222 16.29 0 30.48-10.677 33.008-24.834 2.914-16.321-9.939-27.261-22.939-32.056-11.105-4.096-21.403-8.569-23.969-9.697-2.813-2.052-4.179-5.338-3.669-8.892.639-4.451 4.052-8.022 9.13-9.552 13.88-4.181 26.404 5.844 26.69 6.076 3.171 2.643 7.884 2.227 10.542-.937 2.665-3.171 2.255-7.902-.916-10.567-.757-.637-18.799-15.517-40.643-8.935-10.651 3.21-18.181 11.556-19.65 21.783z"/></g></svg>