<svg xmlns="http://www.w3.org/2000/svg" width="21" height="17" viewBox="0 0 21 17">
    <path fill="#969697" fill-rule="evenodd" d="M6.528 17c7.832 0 12.116-6.54 12.116-12.21 0-.186-.004-.371-.013-.555a8.7 8.7 0 0 0 2.125-2.222 8.451 8.451 0 0 1-2.446.675A4.3 4.3 0 0 0 20.183.314a8.493 8.493 0 0 1-2.704 1.042A4.24 4.24 0 0 0 14.371 0c-2.352 0-4.26 1.922-4.26 4.291 0 .337.038.665.111.979C6.683 5.09 3.545 3.383 1.445.786a4.302 4.302 0 0 0-.577 2.157c0 1.489.752 2.803 1.895 3.572a4.202 4.202 0 0 1-1.929-.537v.055A4.285 4.285 0 0 0 4.25 10.24a4.24 4.24 0 0 1-1.923.074 4.267 4.267 0 0 0 3.978 2.98 8.503 8.503 0 0 1-5.29 1.838c-.343 0-.682-.02-1.015-.06A11.988 11.988 0 0 0 6.528 17"/>
</svg>
