<svg xmlns="http://www.w3.org/2000/svg" width="24" height="20" viewBox="0 0 24 20">
    <path fill="#1EA1F1" fill-rule="evenodd" d="M24 2.368a9.505 9.505 0 0 1-2.83.793A5.055 5.055 0 0 0 23.338.37a9.7 9.7 0 0 1-3.13 1.225A4.862 4.862 0 0 0 16.618 0c-2.72 0-4.925 2.26-4.925 5.048 0 .395.044.783.128 1.153C7.728 5.988 4.1 3.98 1.67.925a5.12 5.12 0 0 0-.666 2.54c0 1.75.869 3.294 2.19 4.201a4.836 4.836 0 0 1-2.231-.63V7.1c0 2.445 1.698 4.484 3.952 4.948a4.864 4.864 0 0 1-1.297.179c-.317 0-.628-.031-.928-.092.627 2.005 2.447 3.467 4.6 3.505A9.726 9.726 0 0 1 0 17.73 13.651 13.651 0 0 0 7.547 20c9.056 0 14.009-7.693 14.009-14.363 0-.22-.004-.436-.014-.651A10.252 10.252 0 0 0 24 2.368z"/>
</svg>
